<svg width="32" height="32" viewBox="0 0 32 32" fill="none" xmlns="http://www.w3.org/2000/svg">
<circle cx="16" cy="16" r="16" fill="#EBECED"/>
<path d="M16 10.2856C16.4709 10.2856 16.9313 10.4253 17.3228 10.6869C17.7144 10.9485 18.0195 11.3204 18.1997 11.7554C18.3799 12.1905 18.4271 12.6692 18.3352 13.1311C18.2434 13.5929 18.0166 14.0172 17.6836 14.3502C17.3506 14.6832 16.9264 14.9099 16.4645 15.0018C16.0027 15.0937 15.5239 15.0465 15.0889 14.8663C14.6538 14.6861 14.282 14.3809 14.0203 13.9894C13.7587 13.5978 13.6191 13.1375 13.6191 12.6666C13.6191 12.0351 13.8699 11.4295 14.3164 10.983C14.7629 10.5365 15.3686 10.2856 16 10.2856ZM16 9.33325C15.3408 9.33325 14.6963 9.52875 14.1481 9.89502C13.6 10.2613 13.1727 10.7819 12.9204 11.391C12.6681 12.0001 12.6021 12.6703 12.7307 13.3169C12.8594 13.9635 13.1768 14.5574 13.643 15.0236C14.1092 15.4898 14.7031 15.8073 15.3497 15.9359C15.9963 16.0645 16.6665 15.9985 17.2756 15.7462C17.8847 15.4939 18.4053 15.0666 18.7716 14.5185C19.1379 13.9703 19.3334 13.3259 19.3334 12.6666C19.3334 11.7825 18.9822 10.9347 18.357 10.3096C17.7319 9.68444 16.8841 9.33325 16 9.33325Z" fill="black"/>
<path d="M20.7619 22.6667H19.8095V20.2857C19.8095 19.9731 19.7479 19.6634 19.6283 19.3746C19.5086 19.0857 19.3333 18.8232 19.1122 18.6021C18.8911 18.381 18.6286 18.2057 18.3397 18.086C18.0509 17.9664 17.7412 17.9048 17.4286 17.9048H14.5714C13.94 17.9048 13.3344 18.1556 12.8878 18.6021C12.4413 19.0487 12.1905 19.6543 12.1905 20.2857V22.6667H11.2381V20.2857C11.2381 19.4017 11.5893 18.5538 12.2144 17.9287C12.8395 17.3036 13.6874 16.9524 14.5714 16.9524H17.4286C18.3126 16.9524 19.1605 17.3036 19.7856 17.9287C20.4107 18.5538 20.7619 19.4017 20.7619 20.2857V22.6667Z" fill="black"/>
</svg>
