<svg width="20" height="20" viewBox="0 0 20 20" fill="none" xmlns="http://www.w3.org/2000/svg">
<g clipPath="url(#clip0_1183_26413)">
<path d="M18.3333 9.16667V16.6667C18.3333 16.8877 18.2455 17.0996 18.0892 17.2559C17.933 17.4122 17.721 17.5 17.5 17.5H2.49999C2.27898 17.5 2.06701 17.4122 1.91073 17.2559C1.75445 17.0996 1.66666 16.8877 1.66666 16.6667V9.16667H18.3333ZM18.3333 5.83333H1.66666V3.33333C1.66666 3.11232 1.75445 2.90036 1.91073 2.74408C2.06701 2.5878 2.27898 2.5 2.49999 2.5H17.5C17.721 2.5 17.933 2.5878 18.0892 2.74408C18.2455 2.90036 18.3333 3.11232 18.3333 3.33333V5.83333Z" fill="#A1ABB7"/>
</g>
<defs>
<clipPath id="clip0_1183_26413">
<rect width="20" height="20" fill="white"/>
</clipPath>
</defs>
</svg>
