<svg width="20" height="14" viewBox="0 0 20 14" fill="none" xmlns="http://www.w3.org/2000/svg">
<path d="M13.334 0.333344C13.555 0.333344 13.767 0.421141 13.9232 0.577421C14.0795 0.733702 14.1673 0.945663 14.1673 1.16668V4.66668L18.5115 1.62501C18.574 1.58122 18.6472 1.55542 18.7234 1.55043C18.7995 1.54543 18.8755 1.56143 18.9432 1.59667C19.0108 1.63192 19.0675 1.68506 19.107 1.7503C19.1465 1.81555 19.1674 1.89039 19.1673 1.96668V12.0333C19.1674 12.1096 19.1465 12.1845 19.107 12.2497C19.0675 12.315 19.0108 12.3681 18.9432 12.4033C18.8755 12.4386 18.7995 12.4546 18.7234 12.4496C18.6472 12.4446 18.574 12.4188 18.5115 12.375L14.1673 9.33334V12.8333C14.1673 13.0544 14.0795 13.2663 13.9232 13.4226C13.767 13.5789 13.555 13.6667 13.334 13.6667H1.66732C1.4463 13.6667 1.23434 13.5789 1.07806 13.4226C0.921782 13.2663 0.833984 13.0544 0.833984 12.8333V1.16668C0.833984 0.945663 0.921782 0.733702 1.07806 0.577421C1.23434 0.421141 1.4463 0.333344 1.66732 0.333344H13.334ZM6.16732 4.35751C6.09047 4.35749 6.01599 4.38403 5.95646 4.43262C5.89693 4.48122 5.85602 4.54889 5.84065 4.62418L5.83398 4.69001V9.30834C5.83398 9.36232 5.84708 9.4155 5.87217 9.4633C5.89725 9.5111 5.93357 9.55208 5.978 9.58274C6.02243 9.6134 6.07364 9.63281 6.12723 9.6393C6.18082 9.64579 6.23519 9.63917 6.28565 9.62001L6.34648 9.59001L9.97565 7.28001C10.018 7.25292 10.0537 7.2166 10.08 7.17377C10.1063 7.13095 10.1226 7.08272 10.1277 7.03271C10.1327 6.98269 10.1264 6.93218 10.1091 6.88496C10.0919 6.83773 10.0642 6.79502 10.0282 6.76001L9.97565 6.71834L6.34648 4.40834C6.29272 4.37501 6.23057 4.35767 6.16732 4.35834V4.35751Z" fill="#1877F2"/>
</svg>
