<svg width="22" height="19" viewBox="0 0 22 19" fill="none" xmlns="http://www.w3.org/2000/svg">
<path d="M14 6.1847e-06C14.7023 -7.73774e-05 15.3922 0.184738 16.0004 0.53587C16.6086 0.887002 17.1137 1.39207 17.4647 2.0003C17.8158 2.60853 18.0006 3.29847 18.0005 4.00075C18.0003 4.70304 17.8153 5.39291 17.464 6.00101L22 6.00001V8.00001H20V18C20 18.2652 19.8946 18.5196 19.7071 18.7071C19.5196 18.8946 19.2652 19 19 19H3C2.73478 19 2.48043 18.8946 2.29289 18.7071C2.10536 18.5196 2 18.2652 2 18V8.00001H0V6.00001L4.536 6.00101C4.03986 5.14189 3.88069 4.12906 4.08938 3.15918C4.29808 2.1893 4.85975 1.33157 5.66533 0.752558C6.47092 0.173543 7.46293 -0.0854441 8.44875 0.0258849C9.43456 0.137214 10.3438 0.610914 11 1.35501C11.3746 0.928388 11.8361 0.58678 12.3535 0.353084C12.8709 0.119389 13.4323 -0.000994248 14 6.1847e-06ZM12 8.00001H10V18H12V8.00001ZM8 2.00001C7.48102 1.99768 6.98145 2.19719 6.60685 2.55639C6.23224 2.91558 6.01193 3.40632 5.99246 3.92495C5.97299 4.44357 6.15588 4.94945 6.50249 5.33572C6.84911 5.722 7.3323 5.9584 7.85 5.99501L8 6.00001H10V4.00001C10 3.52207 9.82889 3.05992 9.51759 2.69726C9.2063 2.33461 8.77542 2.09541 8.303 2.02301L8.149 2.00501L8 2.00001ZM14 2.00001C13.4954 1.99985 13.0094 2.19041 12.6395 2.5335C12.2695 2.87659 12.0428 3.34685 12.005 3.85001L12 4.00001V6.00001H14C14.5046 6.00017 14.9906 5.8096 15.3605 5.46651C15.7305 5.12342 15.9572 4.65316 15.995 4.15001L16 4.00001C16 3.46957 15.7893 2.96087 15.4142 2.58579C15.0391 2.21072 14.5304 2.00001 14 2.00001Z" fill="#1877F2"/>
</svg>
