<svg width="16" height="16" viewBox="0 0 16 16" fill="none" xmlns="http://www.w3.org/2000/svg">
<path d="M8.00002 2.28563C8.47093 2.28563 8.93126 2.42527 9.32281 2.6869C9.71435 2.94852 10.0195 3.32037 10.1997 3.75543C10.3799 4.1905 10.4271 4.66923 10.3352 5.13109C10.2434 5.59295 10.0166 6.01719 9.68361 6.35017C9.35063 6.68316 8.92638 6.90992 8.46452 7.00179C8.00266 7.09366 7.52393 7.04651 7.08887 6.8663C6.65381 6.68609 6.28195 6.38092 6.02033 5.98937C5.75871 5.59783 5.61907 5.13749 5.61907 4.66659C5.61907 4.03512 5.86992 3.42951 6.31643 2.983C6.76295 2.53648 7.36855 2.28563 8.00002 2.28563ZM8.00002 1.33325C7.34075 1.33325 6.69629 1.52875 6.14812 1.89502C5.59996 2.26129 5.17272 2.78189 4.92042 3.39097C4.66813 4.00006 4.60212 4.67028 4.73074 5.31689C4.85935 5.96349 5.17682 6.55743 5.643 7.02361C6.10917 7.48978 6.70312 7.80725 7.34972 7.93587C7.99632 8.06449 8.66655 7.99848 9.27563 7.74618C9.88472 7.49389 10.4053 7.06665 10.7716 6.51849C11.1379 5.97032 11.3334 5.32586 11.3334 4.66659C11.3334 3.78253 10.9822 2.93468 10.357 2.30956C9.73192 1.68444 8.88408 1.33325 8.00002 1.33325Z" fill="black"/>
<path d="M12.7619 14.6667H11.8095V12.2857C11.8095 11.9731 11.7479 11.6634 11.6283 11.3746C11.5086 11.0857 11.3333 10.8232 11.1122 10.6021C10.8911 10.381 10.6286 10.2057 10.3397 10.086C10.0509 9.96636 9.74125 9.90477 9.42857 9.90477H6.57143C5.93996 9.90477 5.33436 10.1556 4.88784 10.6021C4.44133 11.0487 4.19048 11.6543 4.19048 12.2857V14.6667H3.2381V12.2857C3.2381 11.4017 3.58929 10.5538 4.21441 9.9287C4.83953 9.30358 5.68738 8.95239 6.57143 8.95239H9.42857C10.3126 8.95239 11.1605 9.30358 11.7856 9.9287C12.4107 10.5538 12.7619 11.4017 12.7619 12.2857V14.6667Z" fill="black"/>
</svg>
