<svg width="80" height="80" viewBox="0 0 80 80" fill="none" xmlns="http://www.w3.org/2000/svg">
<path d="M40 80C29.3156 80 19.2708 75.8392 11.7156 68.2844C4.16078 60.7292 0 50.6844 0 40C0 29.3156 4.16078 19.2708 11.7156 11.7156C19.2708 4.16078 29.3156 0 40 0C50.6844 0 60.7292 4.16078 68.2844 11.7156C75.8392 19.2708 80 29.3156 80 40C80 50.6844 75.8392 60.7292 68.2844 68.2844C60.7292 75.8392 50.6844 80 40 80Z" fill="url(#paint0_linear_2445_20457)"/>
<path d="M34.4758 49.3913L26.7417 41.6573C25.8264 40.742 25.8264 39.2581 26.7417 38.3428C27.657 37.4275 29.1409 37.4275 30.0562 38.3428L36.133 44.4195L49.9436 30.6089C50.8589 29.6936 52.3428 29.6936 53.2581 30.6089C54.1734 31.5242 54.1734 33.0081 53.2581 33.9234L37.7902 49.3913C36.875 50.3064 35.3911 50.3064 34.4758 49.3913ZM70.625 40C70.625 23.1133 56.8867 9.375 40 9.375C38.7056 9.375 37.6562 10.4244 37.6562 11.7188C37.6562 13.0131 38.7056 14.0625 40 14.0625C54.302 14.0625 65.9375 25.698 65.9375 40C65.9375 54.302 54.302 65.9375 40 65.9375C25.698 65.9375 14.0625 54.302 14.0625 40C14.0625 38.7056 13.0131 37.6562 11.7188 37.6562C10.4244 37.6562 9.375 38.7056 9.375 40C9.375 56.8867 23.1133 70.625 40 70.625C56.8867 70.625 70.625 56.8867 70.625 40ZM29.1773 11.5278C27.883 11.5278 26.8336 12.5772 26.8336 13.8716C26.8336 15.1659 27.883 16.2153 29.1773 16.2153C30.4717 16.2153 31.5211 15.1659 31.5211 13.8716C31.5211 12.5772 30.4717 11.5278 29.1773 11.5278ZM20.0022 17.6584C18.7078 17.6584 17.6584 18.7078 17.6584 20.0022C17.6584 21.2966 18.7078 22.3459 20.0022 22.3459C21.2966 22.3459 22.3459 21.2966 22.3459 20.0022C22.3459 18.7078 21.2966 17.6584 20.0022 17.6584ZM13.8716 26.8334C12.5772 26.8334 11.5278 27.8828 11.5278 29.1772C11.5278 30.4716 12.5772 31.5209 13.8716 31.5209C15.1659 31.5209 16.2153 30.4716 16.2153 29.1772C16.2153 27.8828 15.1659 26.8334 13.8716 26.8334Z" fill="url(#paint1_linear_2445_20457)"/>
<defs>
<linearGradient id="paint0_linear_2445_20457" x1="40" y1="80" x2="40" y2="0" gradientUnits="userSpaceOnUse">
<stop stop-color="#C3FFE8"/>
<stop offset="0.9973" stop-color="#F0FFF4"/>
</linearGradient>
<linearGradient id="paint1_linear_2445_20457" x1="40" y1="70.625" x2="40" y2="9.375" gradientUnits="userSpaceOnUse">
<stop stop-color="#00B59C"/>
<stop offset="1" stop-color="#9CFFAC"/>
</linearGradient>
</defs>
</svg>
