<svg width="15" height="15" viewBox="0 0 15 15" fill="none" xmlns="http://www.w3.org/2000/svg">
<path d="M14.5003 13.793L10.7243 10.017C11.6317 8.92765 12.0842 7.53042 11.9876 6.11595C11.8911 4.70148 11.2529 3.37869 10.2059 2.42275C9.15892 1.46682 7.78367 0.951334 6.36628 0.98354C4.94889 1.01575 3.59848 1.59316 2.59597 2.59567C1.59347 3.59817 1.01605 4.94858 0.983845 6.36598C0.951639 7.78337 1.46712 9.15861 2.42306 10.2056C3.379 11.2526 4.70179 11.8908 6.11625 11.9873C7.53072 12.0839 8.92796 11.6314 10.0173 10.724L13.7933 14.5L14.5003 13.793ZM2.0003 6.5C2.0003 5.60998 2.26422 4.73995 2.75869 3.99993C3.25316 3.25991 3.95596 2.68313 4.77823 2.34254C5.60049 2.00194 6.50529 1.91283 7.37821 2.08646C8.25112 2.2601 9.05295 2.68868 9.68228 3.31802C10.3116 3.94735 10.7402 4.74918 10.9138 5.62209C11.0875 6.49501 10.9984 7.39981 10.6578 8.22207C10.3172 9.04434 9.74039 9.74715 9.00037 10.2416C8.26035 10.7361 7.39032 11 6.5003 11C5.30723 10.9987 4.16341 10.5241 3.31978 9.68052C2.47616 8.83689 2.00163 7.69307 2.0003 6.5Z" fill="#5C646C"/>
</svg>
