<svg width="12" height="12" viewBox="0 0 12 12" fill="none" xmlns="http://www.w3.org/2000/svg">
<path d="M6 0C4.81331 0 3.65328 0.351894 2.66658 1.01118C1.67989 1.67047 0.910851 2.60754 0.456725 3.7039C0.00259973 4.80025 -0.11622 6.00665 0.115291 7.17054C0.346802 8.33442 0.918247 9.40352 1.75736 10.2426C2.59648 11.0818 3.66557 11.6532 4.82946 11.8847C5.99335 12.1162 7.19974 11.9974 8.2961 11.5433C9.39246 11.0891 10.3295 10.3201 10.9888 9.33342C11.6481 8.34672 12 7.18669 12 6C11.9981 4.40928 11.3654 2.88424 10.2406 1.75943C9.11576 0.63462 7.59072 0.00187662 6 0ZM8.022 8.022C7.91971 8.12425 7.781 8.1817 7.63636 8.1817C7.49173 8.1817 7.35302 8.12425 7.25073 8.022L5.61436 6.38563C5.51206 6.28337 5.45458 6.14465 5.45455 6V2.72727C5.45455 2.58261 5.51201 2.44387 5.61431 2.34158C5.7166 2.23928 5.85534 2.18182 6 2.18182C6.14466 2.18182 6.2834 2.23928 6.38569 2.34158C6.48799 2.44387 6.54545 2.58261 6.54545 2.72727V5.77418L8.022 7.25073C8.12426 7.35301 8.1817 7.49173 8.1817 7.63636C8.1817 7.781 8.12426 7.91971 8.022 8.022Z" fill="#999EA3"/>
</svg>
